<svg id="Layer_1" data-name="Layer 1" xmlns="http://www.w3.org/2000/svg" viewBox="0 0 1024 1024"><defs><style>.cls-1{fill:#e5e5e6;}.cls-2{fill:#fff;}.cls-3{fill:#9d9d9d;}.cls-4{fill:#742ecc;}.cls-5{fill:#b384f6;}.cls-6{fill:#5a27a8;}</style></defs><path class="cls-1" d="M658,431.47v-3.88l-3.36-1.94L515.36,345.22,512,343.28l-3.36,1.94L369.32,425.65,366,427.59V596.22l3.36,1.94L508.64,678.6l3.36,1.94,3.36-1.94,139.31-80.44,3.37-1.94V431.47Z"/><polygon class="cls-2" points="365.96 427.77 512 512.09 658.03 431.65 658.04 596.41 512 680.73 365.96 596.41 365.96 427.77"/><polygon class="cls-3" points="512 512.09 512 680.72 658.03 596.41 658.03 427.77 512 512.09"/><path class="cls-4" d="M658,92.71V88.83l-3.36-1.94L515.36,6.46,512,4.52l-3.36,1.94L369.32,86.89,366,88.83V257.47l3.36,1.94,139.32,80.43,3.36,1.94,3.36-1.94,139.31-80.43,3.37-1.94V92.71Z"/><path class="cls-4" d="M366,600.85V597L362.6,595,223.28,514.59l-3.36-1.94-3.36,1.94L77.25,595,73.89,597V765.6l3.36,1.94L216.56,848l3.36,1.94,3.36-1.94L362.6,767.54,366,765.6V600.85Z"/><path class="cls-4" d="M366,262.09v-3.88l-3.36-1.94L223.28,175.84l-3.36-1.94-3.36,1.94L77.25,256.27l-3.36,1.94V426.84l3.36,2,139.31,80.43,3.36,1.94,3.36-1.94L362.6,428.78l3.36-1.94V262.09Z"/><path class="cls-4" d="M950.11,262.09v-3.88l-3.36-1.94L807.43,175.84l-3.36-1.94-3.36,1.94L661.4,256.27,658,258.21V426.84l3.37,2,139.31,80.43,3.36,1.94,3.36-1.94,139.32-80.44,3.36-1.94V262.09Z"/><path class="cls-4" d="M950.11,600.85V597L946.75,595,807.43,514.59l-3.36-1.94-3.36,1.94L661.4,595,658,597V765.6l3.37,1.94L800.71,848l3.36,1.94,3.36-1.94,139.32-80.44,3.36-1.94V600.85Z"/><path class="cls-4" d="M658,770.22v-3.88l-3.36-1.94L515.36,684,512,682,508.64,684,369.32,764.4,366,766.34V935l3.36,1.94,139.32,80.43,3.36,1.94,3.36-1.94,139.31-80.43L658,935V770.22Z"/><polygon class="cls-5" points="365.96 89.02 512 173.34 658.03 92.9 658.04 257.65 512 341.97 365.96 257.65 365.96 89.02"/><polygon class="cls-5" points="73.89 597.15 219.92 681.47 365.96 601.03 365.96 765.79 219.92 850.1 73.89 765.79 73.89 597.15"/><polygon class="cls-5" points="73.89 258.39 219.92 342.71 365.96 262.28 365.96 427.03 219.92 511.35 73.89 427.03 73.89 258.39"/><polygon class="cls-5" points="658.03 258.39 804.07 342.71 950.11 262.28 950.11 427.03 804.07 511.35 658.03 427.03 658.03 258.39"/><polygon class="cls-5" points="658.03 597.15 804.07 681.47 950.11 601.03 950.11 765.79 804.07 850.1 658.03 765.79 658.03 597.15"/><polygon class="cls-5" points="365.96 766.53 512 850.85 658.03 770.41 658.04 935.17 512 1019.48 365.96 935.17 365.96 766.53"/><polygon class="cls-6" points="512 173.34 512 341.97 658.03 257.65 658.03 89.02 512 173.34"/><polygon class="cls-6" points="219.92 681.47 219.92 850.1 365.96 765.79 365.96 597.15 219.92 681.47"/><polygon class="cls-6" points="219.92 342.71 219.92 511.35 365.96 427.03 365.96 258.39 219.92 342.71"/><polygon class="cls-6" points="804.07 342.71 804.07 511.35 950.11 427.03 950.11 258.39 804.07 342.71"/><polygon class="cls-6" points="804.07 681.47 804.07 850.1 950.11 765.79 950.11 597.15 804.07 681.47"/><polygon class="cls-6" points="512 850.85 512 1019.48 658.03 935.17 658.03 766.53 512 850.85"/></svg>